<svg width="400" height="260" viewBox="0 0 400 260" fill="none" xmlns="http://www.w3.org/2000/svg">
<path d="M368.26 196.239C366.859 193.135 362.892 192.47 359.275 194.711C355.657 196.951 352.273 205.435 352.273 205.435C352.273 205.435 359.776 207.22 364.561 205.329C369.345 203.439 369.217 198.456 368.26 196.239Z" fill="#ECECEC"/>
<path d="M340.615 195.48C342.239 190.956 343.324 186.256 343.848 181.477C345.015 168.291 355.832 156.143 366.019 168.151C372.006 175.153 368.867 186.297 360.185 191.7C352.39 196.507 340.615 195.48 340.615 195.48Z" fill="#ECECEC"/>
<path d="M342.949 210.604L365.121 198.375" stroke="#D1D1D1" stroke-width="0.5" stroke-miterlimit="10"/>
<path d="M362.098 197.009L359.683 198.666L356.497 203.112" stroke="#D1D1D1" stroke-width="0.5" stroke-miterlimit="10"/>
<path d="M360.231 196.612L359.683 198.666" stroke="#D1D1D1" stroke-width="0.5" stroke-miterlimit="10"/>
<path d="M361.142 200.521C362.615 201.139 364.219 201.379 365.809 201.222" stroke="#D1D1D1" stroke-width="0.5" stroke-miterlimit="10"/>
<path d="M358.924 175.713C358.924 175.713 344.104 191.466 334.034 203.019" stroke="#D1D1D1" stroke-width="0.5" stroke-miterlimit="10"/>
<path d="M347.862 175.596L346.952 182.108L349.927 178.689" stroke="#D1D1D1" stroke-width="0.5" stroke-miterlimit="10"/>
<path d="M346.963 182.096L342.821 193.181" stroke="#D1D1D1" stroke-width="0.5" stroke-miterlimit="10"/>
<path d="M346.812 188.794L353.428 185.62L357.862 186.215" stroke="#D1D1D1" stroke-width="0.5" stroke-miterlimit="10"/>
<path d="M355.564 183.31L353.428 185.643" stroke="#D1D1D1" stroke-width="0.5" stroke-miterlimit="10"/>
<path d="M357.442 170.497L353.872 181.127" stroke="#D1D1D1" stroke-width="0.5" stroke-miterlimit="10"/>
<path d="M367.256 87.8198C365.513 87.0062 363.614 86.5798 361.69 86.5697C359.767 86.5597 357.864 86.9662 356.112 87.7614C355.767 83.984 354.086 80.4535 351.371 77.8042C348.656 75.155 345.086 73.5606 341.301 73.3075C337.517 73.0544 333.766 74.1593 330.723 76.4236C327.679 78.6878 325.543 81.9632 324.698 85.661C323.172 83.8341 321.108 82.5361 318.8 81.9522C316.493 81.3682 314.059 81.5283 311.848 82.4095C309.637 83.2906 307.76 84.8479 306.486 86.8589C305.213 88.8699 304.607 91.2319 304.756 93.6077C303.41 92.5364 301.846 91.7726 300.174 91.37C298.502 90.9673 296.761 90.9356 295.076 91.277C293.39 91.6184 291.799 92.3246 290.415 93.3461C289.031 94.3677 287.888 95.6797 287.065 97.1902L374.339 96.4317C373.849 94.5708 372.962 92.8379 371.739 91.3515C370.516 89.8652 368.987 88.6604 367.256 87.8198Z" fill="#EEEEEE"/>
<path d="M98.5249 40.2678C96.3913 39.272 94.0676 38.7491 91.7131 38.735C89.3585 38.7209 87.0288 39.2159 84.8834 40.1861C84.4538 35.5695 82.3942 31.2568 79.0736 28.0208C75.753 24.7848 71.3886 22.8371 66.7625 22.5267C62.1363 22.2163 57.5508 23.5635 53.8277 26.327C50.1046 29.0904 47.4874 33.0893 46.445 37.6072C44.5739 35.3809 42.0485 33.8011 39.2279 33.0926C36.4073 32.3841 33.435 32.5829 30.7339 33.6608C28.0328 34.7386 25.7404 36.6407 24.1825 39.0964C22.6246 41.5521 21.8805 44.4365 22.0562 47.3394C20.4092 46.0305 18.496 45.0974 16.4506 44.6054C14.4052 44.1135 12.2769 44.0746 10.2149 44.4914C8.15282 44.9083 6.20686 45.7708 4.51314 47.0187C2.81942 48.2665 1.41889 49.8695 0.409668 51.7154L107.183 50.7935C106.583 48.5191 105.499 46.4012 104.004 44.5846C102.51 42.768 100.641 41.2955 98.5249 40.2678Z" fill="#EEEEEE"/>
<path d="M39.9683 214.187C39.9683 214.187 47.1566 224.77 98.933 229.59C150.71 234.409 176.849 250.455 209.791 255.262C242.733 260.07 283.307 228.423 318.712 233.196C354.116 237.968 396.604 219.659 400 214.187H39.9683Z" fill="#EBEBEB"/>
<g opacity="0.59">
<path d="M294.988 214.233H344.711C344.711 214.233 344.407 206.298 334.71 209.063C335.621 204.046 335.516 198.561 329.903 205.119C331.07 199.483 332.085 187.429 323.368 201.385C323.368 201.385 327.721 190.509 322.831 190.171C318.35 189.868 314.663 199.658 314.663 199.658C314.663 199.658 311.29 190.404 305.981 190.544C300.869 190.673 294.988 214.233 294.988 214.233Z" fill="#ECECEC"/>
<path d="M343.042 201.934C337.791 200.055 333.217 203.427 333.217 203.427L332.598 196.811C331.56 198.456 330.953 199.611 330.953 199.611C330.953 199.611 331.431 193.17 325.118 193.17C310.03 193.17 307.614 213.789 307.614 213.789H349.729C349.565 212.401 348.188 203.789 343.042 201.934Z" fill="#ECECEC"/>
</g>
<path d="M255.114 144.381C255.988 145.216 256.534 146.335 256.656 147.537C256.778 148.739 256.467 149.946 255.78 150.939C255.772 150.956 255.76 150.971 255.746 150.983C255.732 150.995 255.716 151.004 255.698 151.009C255.679 151.017 255.66 151.022 255.64 151.022C255.619 151.022 255.599 151.017 255.581 151.009C255.084 150.474 254.72 149.83 254.517 149.129C254.315 148.428 254.279 147.689 254.414 146.971C254.579 146.091 254.813 145.225 255.114 144.381Z" fill="#ECECEC"/>
<path d="M257.577 146.26C258.911 146.32 260.169 146.902 261.077 147.882C261.478 148.361 261.762 148.926 261.908 149.534C262.054 150.141 262.057 150.774 261.918 151.383C261.906 151.427 261.881 151.468 261.848 151.499H261.673C260.887 151.452 260.131 151.182 259.492 150.721C258.854 150.26 258.359 149.628 258.067 148.897C257.812 148.037 257.644 147.153 257.565 146.26" fill="#ECECEC"/>
<path d="M259.957 148.722C260.836 149.392 261.621 150.177 262.291 151.056C262.583 151.409 262.822 151.802 263.003 152.222C263.234 152.899 263.324 153.615 263.268 154.328C263.212 155.04 263.01 155.733 262.676 156.365C261.666 155.8 260.852 154.942 260.342 153.903C260.168 153.42 260.051 152.919 259.992 152.409C259.922 151.216 259.922 150.02 259.992 148.827" fill="#ECECEC"/>
<path d="M262.431 148.197C263.028 147.358 263.829 146.686 264.758 146.243C265.687 145.8 266.713 145.601 267.741 145.664C268.067 145.628 268.397 145.671 268.704 145.788C269.011 145.906 269.285 146.096 269.503 146.341C268.172 149.352 266.002 149.97 262.431 148.197Z" fill="#ECECEC"/>
<path d="M254.368 143.996C254.662 143.314 255.093 142.699 255.633 142.189C256.173 141.678 256.812 141.284 257.509 141.028C258.207 140.773 258.949 140.662 259.691 140.703C260.433 140.743 261.159 140.935 261.824 141.265C261.857 141.277 261.886 141.295 261.91 141.319C261.934 141.344 261.953 141.373 261.964 141.405C261.977 141.43 261.983 141.458 261.983 141.487C261.983 141.515 261.977 141.543 261.964 141.568C261.066 142.644 259.881 143.444 258.547 143.873C257.212 144.303 255.784 144.345 254.426 143.996" fill="#ECECEC"/>
<path d="M251.054 143.027C251.66 143.307 252.314 143.447 252.932 143.681C254.86 144.469 256.61 145.636 258.079 147.111C259.54 148.585 260.68 150.345 261.428 152.281C261.602 152.923 261.824 153.551 262.093 154.16C262.118 154.209 262.16 154.248 262.211 154.27C262.263 154.291 262.32 154.293 262.373 154.276C262.426 154.261 262.473 154.229 262.507 154.185C262.541 154.141 262.559 154.087 262.56 154.031C262.511 153.314 262.325 152.613 262.011 151.966C261.757 151.344 261.468 150.736 261.148 150.145C260.428 148.867 259.541 147.689 258.51 146.645C257.502 145.637 256.359 144.773 255.115 144.077C253.92 143.298 252.563 142.803 251.147 142.63C251.107 142.632 251.068 142.646 251.036 142.671C251.005 142.696 250.982 142.731 250.972 142.77C250.962 142.811 250.964 142.854 250.979 142.894C250.993 142.933 251.019 142.968 251.054 142.992V143.027Z" fill="#D1D1D1"/>
<path d="M267.262 147.065C265.86 147.546 264.392 147.81 262.91 147.847C262.164 147.847 261.42 147.765 260.692 147.602C260.294 147.514 259.904 147.393 259.525 147.24C259.164 147.112 258.837 146.89 258.487 146.785C258.428 146.774 258.367 146.782 258.313 146.807C258.259 146.832 258.214 146.873 258.183 146.925C258.15 146.971 258.132 147.026 258.132 147.082C258.132 147.139 258.15 147.194 258.183 147.24C258.763 147.77 259.478 148.13 260.249 148.278C261.06 148.488 261.897 148.582 262.735 148.559C264.33 148.482 265.893 148.085 267.332 147.392C267.542 147.287 267.332 146.925 267.157 146.995L267.262 147.065Z" fill="#D1D1D1"/>
<path d="M138.515 120.961C138.025 121.603 137.803 122.411 137.897 123.213C138.02 124.054 138.433 124.826 139.064 125.395H139.146C139.146 125.395 139.146 125.395 139.216 125.395C139.498 124.988 139.668 124.514 139.709 124.02C139.75 123.527 139.66 123.031 139.449 122.583C139.179 122.021 138.863 121.482 138.504 120.973" fill="#ECECEC"/>
<path d="M135.692 124.356C135.154 124.872 134.698 125.466 134.338 126.118C134.185 126.368 134.071 126.64 134 126.924C133.946 127.416 133.997 127.913 134.15 128.384C134.303 128.855 134.554 129.288 134.886 129.654C135.536 129.203 136.006 128.538 136.217 127.775C136.263 127.431 136.263 127.082 136.217 126.737C136.1 125.927 135.921 125.127 135.68 124.345" fill="#ECECEC"/>
<path d="M138.994 120.657C138.315 119.786 137.339 119.196 136.252 119C135.175 118.795 134.061 119.008 133.136 119.595C133.136 119.595 133.054 119.665 133.054 119.7C133.054 119.735 133.054 119.77 133.124 119.805C133.947 120.426 134.913 120.829 135.932 120.978C136.952 121.127 137.993 121.016 138.959 120.657" fill="#ECECEC"/>
<path d="M141.129 119.49C140.23 119.737 139.378 120.131 138.609 120.657C137.929 121.077 137.318 121.601 136.8 122.209C136.303 122.805 135.909 123.479 135.633 124.205C135.49 124.586 135.369 124.976 135.271 125.372C135.144 125.831 135.085 126.307 135.096 126.784C135.105 126.809 135.12 126.831 135.141 126.847C135.162 126.864 135.187 126.874 135.213 126.877C135.241 126.875 135.268 126.865 135.29 126.848C135.313 126.832 135.33 126.81 135.341 126.784C135.456 126.342 135.542 125.894 135.598 125.442C135.676 125.046 135.781 124.656 135.913 124.275C136.189 123.549 136.583 122.875 137.08 122.279C137.584 121.683 138.183 121.174 138.854 120.774C139.186 120.553 139.533 120.354 139.892 120.179C140.324 119.969 140.779 119.817 141.199 119.584C141.304 119.584 141.199 119.385 141.129 119.409V119.49Z" fill="#D1D1D1"/>
<path fill-rule="evenodd" clip-rule="evenodd" d="M96.4359 214.011C94.3588 212.483 92.2934 211.782 91.1848 210.791C88.9793 208.818 90.508 203.929 88.8509 200.627C87.1939 197.324 82.8062 197.803 83.0163 192.458C83.2263 187.114 80.9508 185.9 76.5632 181.746C72.1755 177.592 73.0625 168.653 74.9179 168.093C76.7733 167.533 75.1979 170.053 78.0335 172.854C80.8691 175.654 87.8357 174.453 90.9398 176.541C94.0438 178.63 91.7448 183.543 95.5023 186.519C99.2598 189.494 105.876 185.947 109.074 188.969C112.271 191.991 109.447 197.861 112.189 201.257C114.932 204.653 120.486 205.213 123.602 207.617C126.055 209.264 128.035 211.525 129.343 214.175L96.4359 214.011Z" fill="#ECECEC"/>
<path fill-rule="evenodd" clip-rule="evenodd" d="M111.326 214.011L106.88 209.017L89.7846 206.146V205.248L105.982 207.967L102.947 204.629L89.4579 202.365C89.401 202.044 89.3191 201.728 89.2128 201.42L102.049 203.509L99.7152 200.953L93.0987 193.532L83.098 191.851C83.098 191.548 83.098 191.245 83.098 190.941L92.1767 192.481L86.3421 186.017L76.8084 175.316C76.7271 175.231 76.6816 175.118 76.6816 175.001C76.6816 174.884 76.7271 174.771 76.8084 174.686C76.8994 174.608 77.0152 174.565 77.135 174.565C77.2549 174.565 77.3709 174.608 77.4618 174.686L86.1321 184.406L85.5953 175.071C85.9136 175.084 86.2301 175.127 86.5405 175.199L87.1123 185.538L93.6237 192.832L99.6451 199.588L100.94 187.685H101.874L100.52 200.452L102.854 203.031L104.488 187.522H105.421L103.729 203.789H103.846C103.965 203.809 104.073 203.871 104.149 203.964C104.185 204.012 104.211 204.067 104.225 204.125C104.239 204.183 104.241 204.243 104.231 204.302C104.216 204.369 104.188 204.433 104.149 204.489L107.534 208.282L112.598 213.953L111.326 214.011ZM113.018 214.011L114.185 202.984C114.465 203.171 114.757 203.334 115.06 203.497L113.893 214L113.018 214.011ZM115.527 214.011L116.566 204.232L117.452 204.618L116.414 213.953L115.527 214.011ZM121.618 214.011L122.377 206.765C122.68 206.94 122.984 207.126 123.252 207.313L122.54 214.058L121.618 214.011Z" fill="#D1D1D1"/>
<path opacity="0.79" d="M274.952 211.759L152.6 211.386L148.983 79.5233L193.256 69.2427L274.952 211.759Z" fill="url(#paint0_linear_449_108830)"/>
<path d="M160.01 67.7722C160.108 67.7432 160.19 67.6779 160.241 67.5897C160.292 67.5016 160.307 67.3973 160.283 67.2984C160.259 67.1996 160.198 67.1137 160.112 67.0585C160.027 67.0033 159.923 66.9831 159.823 67.002C159.756 67.0193 159.695 67.0529 159.644 67.0997C159.593 67.1465 159.555 67.2051 159.532 67.2704C159.513 67.3373 159.512 67.4077 159.529 67.4751C159.545 67.5424 159.578 67.6045 159.625 67.6555C159.673 67.7075 159.734 67.7458 159.802 67.7663C159.87 67.7868 159.941 67.7888 160.01 67.7722Z" fill="#9AD4D6"/>
<path d="M168.914 83.4437C168.677 82.2934 168.381 81.156 168.027 80.0363C167.668 78.391 167.16 76.7818 166.51 75.2286C166.484 75.1296 166.419 75.045 166.33 74.9936C166.242 74.9422 166.136 74.928 166.037 74.9544C165.938 74.9807 165.854 75.0452 165.802 75.1339C165.751 75.2225 165.737 75.3279 165.763 75.427C165.868 77.2969 166.149 79.1528 166.603 80.9699C166.79 81.9267 166.895 82.8953 167.163 83.8172H167.093C166.805 84.0638 166.592 84.3873 166.48 84.75C166.367 85.1127 166.36 85.4998 166.459 85.8663C166.558 86.2329 166.759 86.5638 167.039 86.8208C167.318 87.0777 167.665 87.2501 168.038 87.3179C168.529 87.5158 169.077 87.5158 169.567 87.3179C169.947 87.1326 170.259 86.832 170.458 86.459C170.657 86.086 170.733 85.6597 170.676 85.2408C170.602 84.7966 170.393 84.386 170.078 84.0645C169.763 83.743 169.356 83.5263 168.914 83.4437Z" fill="#FFB800"/>
<path d="M138.854 86.233C138.854 85.2761 138.667 84.2492 138.597 83.3157C138.523 81.9152 138.32 80.5245 137.99 79.1614C137.992 79.1159 137.984 79.0706 137.967 79.0284C137.95 78.9863 137.924 78.9483 137.89 78.9173C137.857 78.8862 137.817 78.8627 137.774 78.8484C137.731 78.8342 137.685 78.8294 137.64 78.8345C137.595 78.8396 137.551 78.8545 137.512 78.8781C137.473 78.9017 137.44 78.9334 137.414 78.9712C137.389 79.0089 137.372 79.0517 137.364 79.0966C137.357 79.1416 137.359 79.1876 137.372 79.2314C137.197 80.7813 137.17 82.3442 137.29 83.8991C137.28 84.7054 137.311 85.5116 137.383 86.3147H137.302C136.993 86.4934 136.749 86.7671 136.609 87.0952C136.468 87.4232 136.437 87.7879 136.52 88.1351C136.585 88.4065 136.719 88.6566 136.909 88.861C137.099 89.0654 137.339 89.2173 137.605 89.302C137.851 89.44 138.128 89.5125 138.41 89.5125C138.692 89.5125 138.969 89.44 139.215 89.302C139.461 89.1642 139.667 88.9648 139.812 88.7233C139.957 88.4819 140.037 88.2068 140.044 87.9251C140.042 87.5551 139.927 87.1946 139.715 86.8921C139.502 86.5895 139.201 86.3595 138.854 86.233Z" fill="#FFB800"/>
<path d="M195.356 72.8133C194.944 71.9324 194.593 71.0239 194.306 70.0944C193.745 68.8144 193.299 67.4865 192.976 66.1268C192.964 66.0531 192.978 65.9777 193.013 65.9122C193.049 65.8468 193.106 65.7951 193.174 65.7651C193.246 65.7354 193.326 65.7333 193.399 65.7592C193.473 65.785 193.534 65.837 193.571 65.9051C194.422 67.2191 195.149 68.61 195.741 70.0594C196.068 70.7829 196.488 71.483 196.78 72.2415H196.862C197.219 72.2646 197.559 72.4018 197.832 72.6329C198.105 72.864 198.297 73.1768 198.379 73.5251C198.453 73.7978 198.453 74.0855 198.38 74.3583C198.306 74.6312 198.16 74.8793 197.958 75.0772C197.806 75.3139 197.594 75.5068 197.345 75.6369C197.095 75.767 196.815 75.8299 196.534 75.8193C196.253 75.8087 195.979 75.725 195.74 75.5765C195.5 75.4279 195.304 75.2197 195.169 74.9721C194.961 74.641 194.867 74.251 194.901 73.8614C194.935 73.4718 195.094 73.1038 195.356 72.8133Z" fill="#FFB800"/>
<path d="M211.798 46.604C208.146 40.8977 185.076 38.2955 159.882 44.2701C138.34 49.3813 110.019 62.3342 112.213 71.1094C114.01 78.4727 134.163 82.6853 158.89 77.3408C208.146 66.6518 215.871 52.9754 211.798 46.604Z" fill="#ADC0DB"/>
<path d="M113.73 68.9277C113.298 74.1205 121.023 76.7461 124.967 77.6213C127.932 78.1439 130.946 78.3357 133.953 78.193C137.816 78.1816 141.675 77.9713 145.517 77.5629C154.415 76.6362 163.223 74.9893 171.854 72.6385C180.092 70.5896 188.094 67.6877 195.73 63.9799C200.503 61.7146 204.909 58.7447 208.799 55.1696C211.063 52.9291 213.082 48.4831 209.628 46.301C209.543 46.2329 209.434 46.2014 209.326 46.2135C209.217 46.2255 209.118 46.28 209.05 46.3652C208.982 46.4503 208.95 46.559 208.962 46.6673C208.974 46.7756 209.029 46.8747 209.114 46.9428C212.988 51.1904 206.909 55.508 203.793 57.7718C200.364 60.2228 196.711 62.3444 192.882 64.1083C186.013 67.1991 178.892 69.6976 171.598 71.5766C157.723 75.3458 142.915 78.0297 128.421 77.2362C125.835 77.1068 123.29 76.5386 120.895 75.5558C118.176 74.3889 113.998 72.4401 114.115 68.9743C114.115 68.9155 114.091 68.8592 114.05 68.8176C114.008 68.776 113.952 68.7526 113.893 68.7526C113.834 68.7526 113.778 68.776 113.736 68.8176C113.695 68.8592 113.671 68.9155 113.671 68.9743L113.73 68.9277Z" fill="#FCFCFC"/>
<path d="M125.527 63.5598C125.325 63.3919 125.077 63.2879 124.815 63.2609C124.553 63.2339 124.29 63.2851 124.057 63.4081C123.064 63.205 122.04 63.2112 121.049 63.4262C120.058 63.6412 119.124 64.0602 118.304 64.6567C116.215 65.952 117.394 68.4492 119.541 68.7409C121.688 69.0327 125.294 68.0758 126.169 66.0337C126.355 65.6091 126.393 65.1343 126.277 64.6855C126.16 64.2368 125.896 63.8403 125.527 63.5598Z" fill="#FEF699"/>
<path d="M138.27 67.9239C138.012 67.8852 137.749 67.9232 137.512 68.0332C137.276 68.1431 137.077 68.3202 136.94 68.5424C135.985 68.8803 135.11 69.4139 134.373 70.1092C133.635 70.8044 133.051 71.6459 132.658 72.5799C131.607 74.7504 133.824 76.2907 135.832 75.4389C137.652 74.6571 140.406 71.9381 140.103 69.7093C140.044 69.2483 139.831 68.8208 139.498 68.4965C139.166 68.1722 138.733 67.9704 138.27 67.9239Z" fill="#FEF699"/>
<path d="M160.372 64.3296C160.213 64.5089 160.113 64.7328 160.086 64.9708C160.059 65.2088 160.106 65.4494 160.22 65.6599C160.02 66.5593 160.009 67.4906 160.188 68.3945C160.367 69.2985 160.731 70.1554 161.259 70.911C162.426 72.7898 164.76 71.7746 165.005 69.8725C165.25 67.9704 164.491 64.668 162.671 63.8045C162.285 63.6164 161.847 63.5659 161.429 63.6614C161.01 63.757 160.638 63.9928 160.372 64.3296Z" fill="#FEF699"/>
<path d="M180.746 60.6654C180.812 60.9312 180.961 61.1692 181.17 61.3453C181.38 61.5214 181.64 61.6266 181.913 61.6456C182.603 62.3849 183.437 62.9738 184.365 63.3755C185.293 63.7771 186.294 63.9827 187.304 63.9795C189.732 64.1312 190.268 61.4356 188.705 59.9536C187.141 58.4716 183.652 57.1297 181.703 58.2616C181.294 58.4934 180.976 58.858 180.802 59.2951C180.628 59.7323 180.608 60.2157 180.746 60.6654Z" fill="#FEF699"/>
<path d="M193.583 48.4128C193.754 48.6128 193.981 48.7566 194.235 48.8253C194.489 48.894 194.758 48.8845 195.006 48.7979C195.947 49.1533 196.95 49.3109 197.954 49.2607C198.958 49.2105 199.941 48.9536 200.841 48.5062C203.093 47.561 202.358 44.912 200.281 44.2819C198.39 43.6867 194.446 44.0018 193.279 45.8689C193.034 46.2646 192.931 46.7317 192.986 47.1939C193.041 47.6561 193.251 48.0859 193.583 48.4128Z" fill="#FEF699"/>
<path d="M199.417 173.846L167.548 152.502L183.885 114.157L215.754 135.489L199.417 173.846Z" fill="white" stroke="#EBEBEB"/>
<path d="M214.587 138.161L182.73 116.818L183.897 114.134L215.754 135.489L214.587 138.161Z" fill="#FFCD01"/>
<path d="M182.765 116.841L214.587 138.161" stroke="#EBEBEB"/>
<path d="M188.378 157.579L172.741 147.077L173.301 145.793L188.915 156.295L188.378 157.579Z" fill="#C7C7C7"/>
<path d="M199.324 167.463L171.901 149.107L172.24 148.325L199.651 166.693L199.324 167.463Z" fill="#EBEBEB"/>
<path d="M198.694 168.945L171.271 150.577L171.598 149.795L199.032 168.174L198.694 168.945Z" fill="#EBEBEB"/>
<path d="M198.075 170.427L170.641 152.071L170.979 151.289L198.39 169.668L198.075 170.427Z" fill="#EBEBEB"/>
<path d="M201.448 162.503L174.013 144.136L184.282 119.957L211.717 138.324L201.448 162.503Z" fill="#C7C7C7"/>
<path d="M172.986 145.163L173.045 145.069L172.975 145.186L172.986 145.163Z" fill="#FFC727"/>
<path d="M173.045 145.034L172.975 145.151L173.045 145.034Z" fill="#FFC727"/>
<path d="M173.045 145.034L172.975 145.151L173.045 145.034Z" fill="#FFC727"/>
<path d="M179.265 151.487L179.02 151.394L179.265 151.487Z" fill="#FFC727"/>
<path d="M173.045 145.034L172.975 145.151L173.045 145.034Z" fill="#DBDBDB"/>
<path d="M197.912 160.146L197.749 160.029H197.83L197.912 160.146Z" fill="#DBDBDB"/>
<path d="M162.473 8.16301L129.939 18.1344C124.745 19.7265 121.824 25.228 123.416 30.4225L133.388 62.9562C134.98 68.1506 140.481 71.0709 145.676 69.4788L178.21 59.5075C183.404 57.9154 186.324 52.4138 184.732 47.2194L174.761 14.6857C173.169 9.49125 167.667 6.57095 162.473 8.16301Z" fill="#252122"/>
<path d="M164.977 7.40618L132.443 17.3776C127.248 18.9697 124.328 24.4712 125.92 29.6656L135.892 62.1993C137.484 67.3938 142.985 70.3141 148.18 68.722L180.713 58.7506C185.908 57.1585 188.828 51.657 187.236 46.4626L177.265 13.9288C175.673 8.73438 170.171 5.81412 164.977 7.40618Z" fill="#FFBA00"/>
<path d="M161.982 24.8408C162.694 23.7439 163.009 23.3005 163.336 22.6937C163.791 21.8418 163.546 21.1183 163.032 20.8499C162.554 20.6875 162.062 20.5665 161.562 20.4882C161.519 20.474 161.474 20.4689 161.429 20.4731C161.384 20.4774 161.34 20.4909 161.301 20.5128C161.262 20.5347 161.227 20.5646 161.2 20.6005C161.172 20.6365 161.153 20.6777 161.142 20.7215C161.142 20.8966 160.068 24.164 159.87 24.9225C159.87 25.0625 159.87 25.2259 160.092 25.3542L160.582 25.576C161.224 25.8327 161.516 25.576 161.982 24.8408Z" fill="white"/>
<path d="M151.468 28.8085C151.772 28.8102 152.067 28.7117 152.309 28.5284L154.152 27.2098C154.293 27.097 154.458 27.0182 154.634 26.9797C154.81 26.9412 154.993 26.9441 155.167 26.9881L156.44 27.1748C156.655 27.2227 156.878 27.2227 157.093 27.1748C157.269 27.1243 157.432 27.0368 157.571 26.9181C157.922 26.611 158.242 26.271 158.528 25.9028C158.668 25.7278 158.68 25.6578 158.657 25.5645C158.633 25.4711 158.493 25.3661 158.272 25.2727C158.272 25.2727 156.159 24.2808 155.413 23.9891C155.3 23.9352 155.176 23.9072 155.051 23.9072C154.926 23.9072 154.802 23.9352 154.689 23.9891L153.709 24.2925C153.376 24.3945 153.075 24.5791 152.834 24.8293L149.788 27.9216C149.625 28.085 149.578 28.2017 149.625 28.3417C149.642 28.3917 149.672 28.4367 149.71 28.4732C149.749 28.5097 149.796 28.5366 149.846 28.5518C150.382 28.6673 150.923 28.753 151.468 28.8085Z" fill="white"/>
<path d="M155.238 28.7154C154.584 28.8904 153.977 29.1005 153.58 29.2288C151.771 29.7246 150.204 30.8609 149.169 32.4262C148.388 33.7332 148.108 35.7753 148.353 38.5876L148.493 40.2329C148.749 43.0219 149.461 44.8073 150.628 45.6125C151.795 46.4177 153.312 46.4293 155.751 45.7875C156.171 45.6708 156.918 45.4608 157.408 45.2741C159.742 44.4572 161.095 43.582 161.866 42.2751C162.636 40.9681 162.939 38.9377 162.683 36.1254L162.531 34.48C162.286 31.7027 161.527 29.9407 160.349 29.1588C159.577 28.7257 158.722 28.4621 157.841 28.3856C156.96 28.3091 156.072 28.4215 155.238 28.7154ZM159.287 32.788C159.193 33.068 157.035 39.1944 156.019 41.3649C155.911 41.6077 155.75 41.8235 155.548 41.997C155.346 42.1704 155.109 42.2973 154.853 42.3684H154.771C154.497 42.4335 154.211 42.438 153.935 42.3816C153.659 42.3252 153.399 42.2092 153.172 42.0417C152.694 41.6916 152.005 41.0381 151.48 40.5947L151.328 40.4663C151.097 40.2674 150.944 39.9925 150.897 39.6909C150.85 39.3894 150.912 39.081 151.072 38.821C151.16 38.6898 151.274 38.5779 151.408 38.4923C151.541 38.4066 151.69 38.349 151.846 38.3228C152.002 38.2966 152.162 38.3024 152.316 38.3399C152.469 38.3774 152.614 38.4458 152.74 38.5409C152.74 38.5409 153.487 38.996 153.814 39.1477C153.848 39.1602 153.885 39.1602 153.919 39.1477V39.0777L157.21 31.9594C157.322 31.675 157.541 31.4459 157.821 31.3215C158.1 31.1971 158.417 31.1874 158.703 31.2943C158.973 31.4216 159.184 31.6473 159.292 31.925C159.401 32.2028 159.399 32.5116 159.287 32.788Z" fill="white"/>
<path d="M146.754 35.1332L147.326 33.6163C147.501 33.1378 147.617 32.7994 147.711 32.4493C147.797 32.2511 147.821 32.0315 147.781 31.8192C147.762 31.7526 147.73 31.6905 147.687 31.6369C147.643 31.5832 147.589 31.5391 147.528 31.5074C147.466 31.4756 147.399 31.4568 147.33 31.4523C147.261 31.4477 147.192 31.4574 147.127 31.4808L135.073 35.1799C135.009 35.1979 134.95 35.2292 134.899 35.2717C134.849 35.3143 134.808 35.3671 134.779 35.4267C134.75 35.4862 134.735 35.5512 134.733 35.6173C134.731 35.6834 134.744 35.7491 134.769 35.8101C134.769 35.9851 135.143 36.2652 135.505 36.5453L137.453 37.9572C137.52 38.0005 137.595 38.0291 137.673 38.0412C137.752 38.0532 137.832 38.0485 137.908 38.0272L140.242 37.3271L141.573 49.7315C141.574 49.7627 141.583 49.793 141.599 49.8201C141.614 49.8472 141.636 49.8701 141.662 49.8872C141.689 49.9043 141.718 49.9149 141.749 49.9182C141.78 49.9216 141.812 49.9176 141.841 49.9065L144.175 49.1947C144.622 49.0546 145.006 48.7643 145.264 48.3729C145.521 47.9816 145.635 47.5134 145.587 47.0476L144.42 36.0434L146.474 35.4133C146.537 35.3875 146.594 35.3494 146.642 35.3014C146.69 35.2533 146.728 35.1961 146.754 35.1332Z" fill="white"/>
<path d="M172.718 23.6856L161.224 27.1863C160.862 27.303 160.792 27.5248 160.874 27.7932C160.967 27.991 161.108 28.1631 161.282 28.2949C162.146 29.0534 162.636 29.4618 163.371 30.022C163.437 30.0674 163.512 30.0974 163.591 30.1095C163.67 30.1217 163.75 30.1157 163.826 30.092L165.915 29.4502L167.245 41.8779C167.249 41.9082 167.26 41.9373 167.276 41.9631C167.292 41.989 167.313 42.0109 167.339 42.0276C167.365 42.0443 167.393 42.0552 167.424 42.0595C167.454 42.0639 167.485 42.0617 167.514 42.053L169.848 41.3295C170.297 41.1932 170.684 40.9038 170.942 40.5115C171.2 40.1192 171.313 39.6489 171.26 39.1823L170.093 28.1666L172.963 27.2797C173.029 27.2613 173.087 27.2236 173.131 27.1716C173.174 27.1196 173.202 27.0556 173.208 26.988L173.407 25.4359C173.407 25.0275 173.477 24.7825 173.5 24.3507C173.519 24.2192 173.519 24.0855 173.5 23.954C173.471 23.8814 173.426 23.816 173.369 23.7622C173.312 23.7084 173.244 23.6674 173.17 23.642C173.096 23.6166 173.017 23.6073 172.939 23.6148C172.862 23.6223 172.786 23.6465 172.718 23.6856Z" fill="white"/>
<path d="M133.987 66.5584C142.856 67.877 152.086 66.325 160.652 63.9678C166.246 62.3978 171.708 60.3924 176.989 57.9698C182.091 55.855 186.526 52.3994 189.825 47.9692C190.572 46.884 188.798 45.9505 188.063 47.0357C184.725 51.7034 179.964 54.5507 174.771 56.8146C169.786 59.0002 164.645 60.8139 159.391 62.2407C151.398 64.3879 142.728 65.8582 134.442 64.6329C133.17 64.4346 132.692 66.395 133.976 66.57L133.987 66.5584Z" fill="#8B846F"/>
<path d="M147.349 64.5395L144.432 51.7034L145.377 51.5283L148.878 64.3645C148.375 64.4733 147.863 64.5319 147.349 64.5395Z" fill="#8B846F"/>
<path d="M155.366 52.6137C154.432 49.8714 158.19 50.5716 162.087 49.2413C165.985 47.911 168.529 45.052 169.462 47.806C170.396 50.5599 169.952 53.1972 164.118 55.1926C158.283 57.188 156.311 55.3676 155.366 52.6137Z" fill="white"/>
<path style="mix-blend-mode:multiply" opacity="0.5" d="M167.234 47.0011C168.4 49.6733 168.132 52.3222 162.449 54.6794C161.094 55.298 159.648 55.6922 158.167 55.8464C159.473 56.2665 161.352 56.1615 164.118 55.2163C169.952 53.2208 170.407 50.5485 169.462 47.8296C169.03 46.5576 168.295 46.4876 167.128 46.8961C167.159 46.9351 167.195 46.9703 167.234 47.0011Z" fill="url(#paint1_linear_449_108830)"/>
<path d="M164.071 55.0293C158.166 57.0481 156.311 55.2627 155.354 52.5787C156.299 55.3327 158.12 57.2464 164.106 55.1576C170.092 53.0688 170.396 50.4899 169.45 47.771C170.337 50.4666 169.812 53.0688 164.071 55.0293Z" fill="#DE946C"/>
<g opacity="0.4">
<path d="M169.73 49.1948C168.993 49.7194 168.212 50.1801 167.396 50.5718C168.204 50.2452 168.984 49.855 169.73 49.4049V49.1948Z" fill="#2B2B2B"/>
<path d="M168.68 49.9886C168.68 49.9886 168.844 50.4321 168.937 50.7938C168.937 50.5487 168.808 50.1753 168.738 49.9536L168.68 49.9886Z" fill="#2B2B2B"/>
<path d="M168.937 50.7935C168.937 50.9335 168.937 51.0268 168.937 51.0268C168.942 50.9491 168.942 50.8712 168.937 50.7935Z" fill="#2B2B2B"/>
<path d="M155.961 53.874C156.835 53.7928 157.701 53.6406 158.551 53.4189C157.675 53.5956 156.785 53.6971 155.891 53.7224L155.961 53.874Z" fill="#2B2B2B"/>
<path d="M157.209 53.7109H157.139C157.221 53.921 157.384 54.271 157.501 54.4928C157.391 54.2372 157.293 53.9763 157.209 53.7109Z" fill="#2B2B2B"/>
<path d="M157.501 54.5044L157.606 54.7144L157.501 54.5044Z" fill="#2B2B2B"/>
</g>
<g style="mix-blend-mode:multiply" opacity="0.5">
<path d="M167.222 55.1812C165.699 56.1177 164.042 56.818 162.309 57.2583C162.309 57.2583 165.693 57.0132 167.222 55.1812Z" fill="#F8BE9F"/>
</g>
<path d="M148.079 63.2536C149.964 62.6947 150.959 60.4484 150.303 58.2364C149.647 56.0244 147.588 54.6844 145.703 55.2433C143.819 55.8023 142.823 58.0485 143.479 60.2605C144.135 62.4725 146.195 63.8125 148.079 63.2536Z" fill="#252122"/>
<path d="M149.691 59.5606C150.692 59.3129 151.254 58.108 150.948 56.8693C150.641 55.6306 149.581 54.8272 148.58 55.0749C147.579 55.3226 147.017 56.5276 147.323 57.7663C147.63 59.005 148.69 59.8083 149.691 59.5606Z" fill="#252122"/>
<path d="M145.167 54.8541C146.462 54.8541 147.512 53.804 147.512 52.5086C147.512 51.2132 146.462 50.1631 145.167 50.1631C143.871 50.1631 142.821 51.2132 142.821 52.5086C142.821 53.804 143.871 54.8541 145.167 54.8541Z" fill="#8B846F"/>
<path d="M179.428 54.539L173.955 42.5897L174.853 42.2163L180.887 54.1073C180.413 54.2923 179.925 54.4367 179.428 54.539Z" fill="#8B846F"/>
<path d="M174.83 45.5304C176.125 45.5304 177.175 44.4803 177.175 43.1849C177.175 41.8895 176.125 40.8394 174.83 40.8394C173.534 40.8394 172.484 41.8895 172.484 43.1849C172.484 44.4803 173.534 45.5304 174.83 45.5304Z" fill="#8B846F"/>
<path d="M178.972 52.8604C180.888 52.4219 182.024 50.2432 181.509 47.9941C180.995 45.7451 179.024 44.2773 177.108 44.7158C175.192 45.1543 174.056 47.333 174.571 49.5821C175.085 51.8311 177.056 53.2989 178.972 52.8604Z" fill="#252122"/>
<path d="M175.772 50.4735C176.765 50.1978 177.294 48.9774 176.953 47.7478C176.612 46.5182 175.529 45.745 174.536 46.0208C173.542 46.2965 173.013 47.5168 173.355 48.7464C173.696 49.976 174.778 50.7492 175.772 50.4735Z" fill="#252122"/>
<defs>
<linearGradient id="paint0_linear_449_108830" x1="175.974" y1="88.6837" x2="211.553" y2="204.338" gradientUnits="userSpaceOnUse">
<stop offset="0.29" stop-color="#ECECEC"/>
<stop offset="0.84" stop-color="white"/>
</linearGradient>
<linearGradient id="paint1_linear_449_108830" x1="163.673" y1="54.5654" x2="165.743" y2="57.2055" gradientUnits="userSpaceOnUse">
<stop stop-color="white" stop-opacity="0"/>
<stop offset="0.15" stop-color="#FFFEFE" stop-opacity="0.01"/>
<stop offset="0.28" stop-color="#FEFBF9" stop-opacity="0.06"/>
<stop offset="0.41" stop-color="#FDF5F2" stop-opacity="0.13"/>
<stop offset="0.53" stop-color="#FBEEE7" stop-opacity="0.24"/>
<stop offset="0.65" stop-color="#F9E4D9" stop-opacity="0.38"/>
<stop offset="0.76" stop-color="#F7D8C8" stop-opacity="0.55"/>
<stop offset="0.88" stop-color="#F4CAB5" stop-opacity="0.74"/>
<stop offset="0.99" stop-color="#F0BA9E" stop-opacity="0.97"/>
<stop offset="1" stop-color="#F0B89B"/>
</linearGradient>
</defs>
</svg>
